<?xml version="1.0" encoding="UTF-8"?>
<svg id="Layer_1" data-name="Layer 1" xmlns="http://www.w3.org/2000/svg" version="1.1" viewBox="0 0 100 100">
  <defs>
    <style>
      .cls-1 {
        fill: #1b1b1f;
        stroke-width: 0px;
      }
    </style>
  </defs>
  <path class="cls-1" d="M87,21.1L56,2.8c-3.7-2.2-8.2-2.2-11.9,0L13.3,21.1c-3.8,2.3-6,6.3-6,10.6v36.7c0,4.3,2.3,8.4,5.9,10.6l30.8,18.3c3.7,2.2,8.2,2.2,11.9,0l30.8-18.3c3.7-2.3,5.9-6.3,5.9-10.6V31.7c0-4.3-2.2-8.3-5.9-10.6h.2ZM63,78.4v2.6c0,.3-.2.6-.4.9l-1.6.9c-.2.1-.4,0-.4-.3v-2.6c-1.1.5-2.4.6-3.6.3-.2-.1-.2-.3-.2-.5l.5-2.4c0-.2.1-.4.3-.5h.3c1.1.3,2.3.1,3.2-.4,1.4-.6,2.4-2.2,2.4-3.7s-.8-1.9-2.5-1.9-4.3-.4-4.3-3.8,1.4-5.5,3.7-7.3v-2.7c0-.3.2-.6.4-.9l1.5-1c.2-.1.4,0,.4.3v2.7c1-.4,1.9-.5,2.9-.3.2.1.3.4.2.6l-.5,2.4c0,.2-.1.3-.2.4h-.1c0,.1-.1.1-.2.1-1-.2-1.9,0-2.8.4-1.3.5-2.2,1.8-2.2,3.1s.6,1.6,2.8,1.6,4.1,1.3,4.1,4.2-1.4,5.8-3.8,7.8ZM79.2,73.8c0,.2,0,.4-.2.6l-7.8,4.7h-.3v-2.3c0-.2.1-.4.3-.5l7.7-4.6h.3v1.9h0ZM84.6,28.8l-29.2,18c-3.7,2.2-6.4,4.5-6.4,8.9v36c0,2.6,1.1,4.3,2.7,4.9-.5,0-1.1.1-1.6.2-1.7,0-3.4-.4-4.9-1.3l-30.8-18.3c-3-1.8-5-5.2-4.9-8.7V31.8c0-3.6,1.8-6.9,4.9-8.7L45.3,4.6c3-1.7,6.7-1.7,9.7,0l30.8,18.3c2.6,1.5,4.3,4.1,4.7,7.1-1-2.2-3.3-2.8-6-1.2h.1Z"/>
</svg>