<?xml version="1.0" encoding="UTF-8"?>
<svg xmlns="http://www.w3.org/2000/svg" version="1.1" xmlns:cc="http://creativecommons.org/ns#" xmlns:dc="http://purl.org/dc/elements/1.1/" xmlns:inkscape="http://www.inkscape.org/namespaces/inkscape" xmlns:rdf="http://www.w3.org/1999/02/22-rdf-syntax-ns#" xmlns:sodipodi="http://sodipodi.sourceforge.net/DTD/sodipodi-0.dtd" xmlns:svg="http://www.w3.org/2000/svg" viewBox="0 0 500 500">
  <defs>
    <style>
      .cls-1 {
        fill: #fff;
      }

      .cls-1, .cls-2, .cls-3, .cls-4 {
        fill-rule: evenodd;
        stroke-width: 0px;
      }

      .cls-2 {
        fill: #00599c;
      }

      .cls-5 {
        opacity: 1;
      }

      .cls-3 {
        fill: #004482;
      }

      .cls-4 {
        fill: #659ad2;
      }
    </style>
  </defs>
  <g id="svg10" sodipodi:docname="icons8-c-programming.svg">
    <g class="cls-5">
      <sodipodi:namedview id="namedview12" bordercolor="#666666" borderopacity="1" fit-margin-bottom="0" fit-margin-left="0" fit-margin-right="0" fit-margin-top="0" gridtolerance="10" guidetolerance="10" inkscape:current-layer="svg10" inkscape:cx="190" inkscape:cy="210.00282" inkscape:pageopacity="0" inkscape:pageshadow="2" inkscape:window-height="1056" inkscape:window-maximized="1" inkscape:window-width="1920" inkscape:window-x="0" inkscape:window-y="0" inkscape:zoom="1.4895833" objecttolerance="10" pagecolor="#ffffff" showgrid="false"/>
      <path id="path2" class="cls-3" d="M239,42.9c6.8-3.8,15.1-3.8,21.9,0,33.5,18.8,134.5,75.5,168.1,94.3,6.8,3.8,11,10.8,11,18.5v188.7c0,7.6-4.2,14.7-11,18.5-33.5,18.8-134.5,75.5-168.1,94.3-6.8,3.8-15.1,3.8-21.9,0-33.5-18.8-134.5-75.5-168.1-94.3-6.8-3.8-11-10.8-11-18.5v-188.7c0-7.6,4.2-14.7,11-18.5,33.5-18.8,134.5-75.5,168.1-94.3h0Z"/>
      <path id="path4" class="cls-4" d="M63,354c-2.7-3.6-3-6.9-3-11.5v-187.6c0-7.6,4.2-14.6,10.9-18.4,33.4-18.7,134-75.1,167.5-93.8,6.8-3.8,15.9-3.7,22.7,0,33.4,18.7,133.7,74.6,167.1,93.3,2.7,1.5,4.8,3.4,6.6,5.8L63,354Z"/>
      <path id="path6" class="cls-1" d="M250,110c77.3,0,140,62.7,140,140s-62.7,140-140,140-140-62.7-140-140,62.7-140,140-140ZM250,180c38.6,0,70,31.4,70,70s-31.4,70-70,70-70-31.4-70-70,31.4-70,70-70Z"/>
      <path id="path8" class="cls-2" d="M434.8,142.1c5.2,4.8,5.1,12.1,5.1,17.8,0,38-.3,145.9,0,183.8,0,4-1.3,8.1-3.2,11.3l-190.8-105,188.9-108Z"/>
    </g>
  </g>
</svg>