<?xml version="1.0" encoding="UTF-8"?>
<svg id="Layer_1" data-name="Layer 1" xmlns="http://www.w3.org/2000/svg" version="1.1" viewBox="0 0 800 800">
  <defs>
    <style>
      .cls-1 {
        fill: #73a1fb;
      }

      .cls-1, .cls-2 {
        stroke-width: 0px;
      }

      .cls-2 {
        fill: #db380e;
      }
    </style>
  </defs>
  <g>
    <path class="cls-2" d="M396.2,157.2c-35.6,25.1-76.1,53.5-97.7,100.5-37.6,82,76.9,171.5,81.8,175.3,1.1.9,2.5,1.3,3.9,1.3s2.9-.5,4.1-1.5c2.3-1.9,2.9-5.1,1.6-7.8-.4-.8-41.5-80.7-40-138,.5-20,28.5-42.6,58-66.6,27.1-22,57.8-46.8,75.7-75.9,39.4-64.1-4.4-127.1-4.8-127.7-1.7-2.4-5-3.3-7.7-2.1-2.7,1.2-4.3,4.2-3.6,7.1,0,.4,8.6,42.1-15.1,85-9.8,17.7-31.2,32.8-56.1,50.3Z"/>
    <path class="cls-2" d="M546.4,185.5c2.5-1.9,3.3-5.3,1.7-8.1-1.5-2.8-4.8-4-7.8-2.9-6.1,2.3-148.3,57.1-148.3,123.4s19.5,69.8,33.8,87.4c5.6,6.9,10.4,12.9,12,18,4.5,14.7-6.1,41.2-10.6,50.2-1.3,2.6-.7,5.7,1.5,7.6,1.2,1,2.7,1.5,4.1,1.5s2.5-.4,3.6-1.1c2.4-1.7,59.8-42.2,49.5-91.1-3.8-18.6-13-32.1-21-44.1-12.5-18.5-21.5-31.9-7.8-56.7,16-28.9,88.5-83.6,89.2-84.2Z"/>
  </g>
  <g>
    <path class="cls-1" d="M176.1,463.6c-2.4,7.3-1.3,14.5,3.3,20.9,15.4,21.4,70,33.2,153.8,33.2h0c11.3,0,23.3-.2,35.6-.7,133.9-4.8,183.6-46.5,185.6-48.3,2.2-1.9,2.8-5.2,1.4-7.8-1.4-2.6-4.4-3.9-7.2-3.1-47.2,12.9-135.2,17.4-196.3,17.4s-103.2-4.9-111.7-8.6c4.4-6,31.3-16.7,64.8-23.3,3.2-.6,5.4-3.6,5.1-6.8s-3-5.7-6.3-5.7c-19.6,0-117.8,1.6-128.1,32.6Z"/>
    <path class="cls-1" d="M624.2,420.7c-27.6,0-53.8,13.8-54.9,14.4-2.6,1.4-3.9,4.3-3.1,7.1.7,2.8,3.2,4.8,6.1,4.8.6,0,58.9.5,64.2,33.8,4.7,28.8-55.2,75.3-78.7,90.9-2.5,1.7-3.5,4.9-2.3,7.7,1,2.4,3.3,3.9,5.8,3.9s.9,0,1.3-.1c5.6-1.2,136.2-30,122.4-106.1-8.4-46.6-37.7-56.4-60.8-56.4Z"/>
    <path class="cls-1" d="M534.6,562.4c.5-2.4-.6-4.9-2.6-6.3l-31.3-21.9c-1.5-1.1-3.5-1.4-5.3-.9-.3,0-33.1,8.7-80.7,14-18.9,2.1-40,3.2-61.2,3.2-47.6,0-78.6-5.6-83.2-9.7-.6-1.2-.4-1.7-.3-2,.8-2.3,5.2-5,8.1-6.1,3.1-1.2,4.8-4.6,3.9-7.8-1-3.2-4.3-5.1-7.5-4.3-31.4,7.6-46.8,18.2-45.7,31.5,2,23.6,56.7,35.8,103,39,6.7.5,13.9.7,21.4.7h0c77,0,175.6-24.1,176.6-24.4,2.4-.6,4.2-2.5,4.7-5Z"/>
    <path class="cls-1" d="M298.4,613.1c2.4-1.5,3.4-4.5,2.6-7.2-.8-2.7-3.4-4.5-6.2-4.4-4.2.1-41.2,1.8-43.8,25.3-.8,7,1.2,13.5,6,19.1,13.3,15.7,49.1,25.1,109.6,28.6,7.2.4,14.4.6,21.6.6,76.9,0,128.6-24.1,130.8-25.1,2.1-1,3.5-3.1,3.6-5.4s-1-4.5-3-5.7l-39.6-24.2c-1.4-.8-3-1.1-4.6-.8-.3,0-25.4,5.3-63.3,10.4-7.2,1-16.2,1.5-26.7,1.5-37.9,0-80.1-6.2-88.1-10.2-.1-.8,0-1.7,1.2-2.6Z"/>
    <path class="cls-1" d="M352.4,747.9c176.1-.1,270.6-31.5,288.8-51.2,6.4-7,7.1-13.6,6.6-17.9-1.4-10.6-11-17.1-12.1-17.8-2.6-1.7-6.2-1.3-8.3,1.1-2.1,2.4-2.1,5.9,0,8.2,1.1,1.4,1.8,3.8-1.5,7.1-7.3,6.8-80.7,27.4-202.9,33.6-16.7.9-34.3,1.3-52.2,1.3-109.4,0-189.5-15-200-23.7,4.1-5.8,32.4-15.1,62.5-20.4,3.4-.6,5.7-3.8,5.2-7.2-.5-3.4-3.7-5.7-7.1-5.3-.8.1-3.7.3-7.1.5-49.7,3-107.2,9.8-110.1,35.4-.9,7.8,1.4,14.9,6.9,21.1,13.4,15.1,52,35.1,231.4,35.1t0,0Z"/>
    <path class="cls-1" d="M675.8,702.2c-2.5-1.2-5.4-.6-7.3,1.4-.3.3-26.7,28-106.3,44.2-30.5,6.1-87.7,9.2-170,9.2s-161-3.2-161.8-3.3c-3.3-.2-6.1,2.2-6.5,5.5-.4,3.2,1.6,6.3,4.8,7,.8.2,83.1,19.5,195.6,19.5s106.4-4.4,156-13c92.5-16.2,98.9-62.1,99.2-64,.3-2.7-1.1-5.3-3.6-6.5Z"/>
  </g>
</svg>