<?xml version="1.0" encoding="UTF-8"?>
<svg id="Layer_1" data-name="Layer 1" xmlns="http://www.w3.org/2000/svg" version="1.1" viewBox="0 0 24 24">
  <defs>
    <style>
      .cls-1 {
        fill: #119ab8;
        stroke-width: 0px;
      }
    </style>
  </defs>
  <path class="cls-1" d="M19,0H5C2.2,0,0,2.2,0,5v14c0,2.8,2.2,5,5,5h14c2.8,0,5-2.2,5-5V5c0-2.8-2.2-5-5-5ZM8,19h-3v-11h3v11ZM6.5,6.7c-1,0-1.8-.8-1.8-1.8s.8-1.8,1.8-1.8,1.8.8,1.8,1.8-.8,1.8-1.8,1.8ZM20,19h-3v-5.6c0-3.4-4-3.1-4,0v5.6h-3v-11h3v1.8c1.4-2.6,7-2.8,7,2.5v6.8h0Z"/>
</svg>