<?xml version="1.0" encoding="UTF-8"?>
<svg id="Layer_1" data-name="Layer 1" xmlns="http://www.w3.org/2000/svg" version="1.1" xmlns:xlink="http://www.w3.org/1999/xlink" viewBox="0 0 515 515">
  <defs>
    <style>
      .cls-1 {
        fill: url(#linear-gradient);
      }

      .cls-1, .cls-2 {
        stroke-width: 0px;
      }

      .cls-2 {
        fill: url(#linear-gradient-2);
      }
    </style>
    <linearGradient id="linear-gradient" x1="-120.3" y1="1000.9" x2="-104.5" y2="985.1" gradientTransform="translate(1598.5 12606) scale(12.5 -12.5)" gradientUnits="userSpaceOnUse">
      <stop offset="0" stop-color="#387eb8"/>
      <stop offset="1" stop-color="#366994"/>
    </linearGradient>
    <linearGradient id="linear-gradient-2" x1="-110.5" y1="990.8" x2="-93.6" y2="974.6" gradientTransform="translate(1598.5 12606) scale(12.5 -12.5)" gradientUnits="userSpaceOnUse">
      <stop offset="0" stop-color="#ffe052"/>
      <stop offset="1" stop-color="#ffc331"/>
    </linearGradient>
  </defs>
  <path class="cls-1" d="M256.1,58.5c-101.5,0-95.2,44-95.2,44v45.6h97v13.7H122.5s-65-7.4-65,95.1,56.7,98.8,56.7,98.8h33.9v-47.6s-1.8-56.7,55.8-56.7h96.1s54,.9,54-52.2v-87.7s8.2-53.1-97.9-53.1ZM202.6,89.2c9.6,0,17.4,7.8,17.4,17.4s-7.8,17.4-17.4,17.4c-9.6,0-17.4-7.8-17.4-17.4,0,0,0,0,0,0,0-9.6,7.8-17.4,17.4-17.4Z"/>
  <path class="cls-2" d="M258.9,456.5c101.6,0,95.2-44,95.2-44v-45.6h-97v-13.7h135.4s65,7.4,65-95.1-56.7-98.8-56.7-98.8h-33.9v47.5s1.8,56.7-55.8,56.7h-96.1s-54-.9-54,52.2v87.7s-8.2,53.1,97.9,53.1ZM312.4,425.8c-9.6,0-17.4-7.8-17.4-17.4,0,0,0,0,0,0,0-9.6,7.8-17.4,17.4-17.4s17.4,7.8,17.4,17.4-7.8,17.4-17.4,17.4Z"/>
</svg>