<?xml version="1.0" encoding="UTF-8"?>
<svg id="Layer_1" data-name="Layer 1" xmlns="http://www.w3.org/2000/svg" version="1.1" viewBox="0 0 1024 1024">
  <defs>
    <style>
      .cls-1 {
        fill: #119ab8;
        stroke-width: 0px;
      }
    </style>
  </defs>
  <path class="cls-1" d="M244.9,825.5c-12.1,11-30.8,10.1-41.8-2.1-10.2-11.3-10.2-28.5,0-39.8l288-288c11.6-11.5,30.3-11.5,41.8,0l288,288c11,12.1,10.1,30.8-2.1,41.8-11.3,10.2-28.5,10.2-39.8,0l-267.3-266.9-266.9,266.9ZM244.9,529.3c-12.1,11-30.8,10.1-41.8-2.1-10.2-11.3-10.2-28.5,0-39.8L491.1,199.5c11.6-11.5,30.3-11.5,41.8,0l288,288c11,12.1,10.1,30.8-2.1,41.8-11.3,10.2-28.5,10.2-39.8,0l-267.3-266.9-266.9,266.9Z"/>
</svg>